<svg width="49" height="31" viewBox="0 0 49 31" fill="none" xmlns="http://www.w3.org/2000/svg">
<path d="M16.8935 28.5166H39.5572C39.7072 28.5166 39.866 28.5166 40.011 28.5328V28.5166C43.7135 28.5166 46.726 25.5054 46.726 21.8029C46.726 18.1004 43.7135 15.0879 40.011 15.0879C39.4885 15.0879 38.9435 15.1578 38.391 15.2941C38.2147 15.3391 38.0235 15.3066 37.8685 15.2041C37.7147 15.1004 37.611 14.9391 37.5835 14.7566C36.8322 9.97787 32.7785 6.51035 27.9435 6.51035C22.556 6.51035 18.1735 10.8929 18.1735 16.2804C18.1735 16.5466 18.1923 16.8066 18.2135 17.0654C18.2297 17.2616 18.1585 17.4554 18.016 17.5929C17.876 17.7304 17.681 17.7966 17.486 17.7766C17.2897 17.7553 17.0935 17.7416 16.8935 17.7416C13.9222 17.7416 11.5047 20.1579 11.5047 23.1291C11.5047 26.1004 13.9222 28.5166 16.8935 28.5166M16.856 16.4241C16.856 16.3766 16.855 16.3291 16.855 16.2804C16.855 10.1666 21.83 5.19284 27.9437 5.19284C33.2012 5.19284 37.6462 8.80411 38.7575 13.8741C39.1812 13.8054 39.6012 13.7704 40.0112 13.7704C44.4412 13.7704 48.045 17.3729 48.045 21.8029C48.045 26.2304 44.4412 29.8341 40.0087 29.8341H34.0175H16.8937C13.195 29.8341 10.1887 26.8266 10.1887 23.1291C10.1887 19.4441 13.175 16.4429 16.8562 16.4241" fill="#357491"/>
<path d="M8.81845 9.3284C9.23095 9.3284 9.6497 9.36335 10.0722 9.4321C11.186 4.36085 15.6297 0.749603 20.8872 0.749603C23.1772 0.749603 25.3734 1.44213 27.2422 2.75089C27.5397 2.95964 27.6122 3.3709 27.4034 3.66965C27.1934 3.96715 26.7834 4.03959 26.4847 3.83084C24.8397 2.67709 22.9047 2.06839 20.8872 2.06839C16.0522 2.06839 11.9984 5.53586 11.2472 10.3146C11.2184 10.4971 11.1147 10.6584 10.9609 10.7609C10.8084 10.8634 10.6172 10.8946 10.4397 10.8521C9.8872 10.7159 9.34345 10.6472 8.81845 10.6472C5.1172 10.6472 2.10471 13.6597 2.10471 17.3609C2.10471 20.8134 4.69094 23.6847 8.11969 24.0384C8.48219 24.0759 8.74594 24.3997 8.70844 24.7622C8.67344 25.1009 8.38594 25.3534 8.05344 25.3534C8.02964 25.3534 8.00845 25.3524 7.98465 25.3514C3.8809 24.9277 0.785889 21.4914 0.785889 17.3614C0.785889 12.9327 4.38964 9.32895 8.81839 9.32895" fill="#357491"/>
</svg>
