<svg width="44" height="46" viewBox="0 0 44 46" fill="none" xmlns="http://www.w3.org/2000/svg">
<path d="M22.2022 33.5086C16.7234 33.5086 12.2672 29.0511 12.2672 23.5723C12.2672 18.0948 16.7234 13.6373 22.2022 13.6373C27.6809 13.6373 32.1372 18.0948 32.1372 23.5723C32.1372 29.0511 27.6809 33.5086 22.2022 33.5086ZM22.2022 12.2336C15.9497 12.2336 10.8634 17.3198 10.8634 23.5723C10.8634 29.8248 15.9497 34.9124 22.2022 34.9124C28.4534 34.9124 33.5409 29.8248 33.5409 23.5723C33.5409 17.3198 28.4534 12.2336 22.2022 12.2336Z" fill="#357491"/>
<path d="M22.2021 8.90961C22.5896 8.90961 22.9034 8.59584 22.9034 8.20709V2.60205C22.9034 2.21455 22.5896 1.90082 22.2021 1.90082C21.8146 1.90082 21.4996 2.21455 21.4996 2.60205V8.20709C21.4996 8.59584 21.8146 8.90961 22.2021 8.90961Z" fill="#357491"/>
<path d="M22.2021 38.0747C21.8146 38.0747 21.4996 38.3885 21.4996 38.7772V44.3822C21.4996 44.7697 21.8146 45.0834 22.2021 45.0834C22.5896 45.0834 22.9034 44.7697 22.9034 44.3822V38.7772C22.9034 38.3885 22.5896 38.0747 22.2021 38.0747Z" fill="#357491"/>
<path d="M29.8797 11.0941C29.9947 11.1654 30.1222 11.1991 30.2485 11.1991C30.4835 11.1991 30.7135 11.0816 30.846 10.8666L33.7972 6.10037C33.9997 5.77036 33.8985 5.33912 33.5697 5.13412C33.2397 4.93037 32.8072 5.0316 32.6035 5.3616L29.6522 10.1291C29.4485 10.4579 29.5497 10.8903 29.8797 11.0941Z" fill="#357491"/>
<path d="M14.5251 35.8902C14.1964 35.6865 13.7626 35.7877 13.5589 36.1177L10.6076 40.884C10.4039 41.214 10.5064 41.6452 10.8351 41.8502C10.9514 41.9214 11.0776 41.9552 11.2039 41.9552C11.4389 41.9552 11.6689 41.8377 11.8014 41.6227L14.7526 36.8552C14.9564 36.5265 14.8539 36.094 14.5251 35.8902Z" fill="#357491"/>
<path d="M35.6825 16.9975C35.795 16.9975 35.9075 16.9713 36.0137 16.915L40.9587 14.2662C41.3012 14.0837 41.43 13.6588 41.2462 13.3163C41.0637 12.9763 40.6387 12.8462 40.2962 13.03L35.3512 15.6775C35.0087 15.86 34.88 16.2862 35.0637 16.6275C35.19 16.8637 35.4325 16.9975 35.6825 16.9975Z" fill="#357491"/>
<path d="M8.38129 30.1145L3.43379 32.762C3.09254 32.9457 2.96379 33.3695 3.14629 33.712C3.27379 33.9482 3.51504 34.0832 3.76629 34.0832C3.87754 34.0832 3.99004 34.0557 4.09629 33.9994L9.04254 31.3519C9.38504 31.1681 9.51379 30.7432 9.33129 30.4007C9.14754 30.0607 8.72379 29.9319 8.38129 30.1144" fill="#357491"/>
<path d="M43.1036 22.7518H43.1016L37.4916 22.768C37.1041 22.769 36.7904 23.0842 36.7916 23.4717C36.7926 23.858 37.1066 24.1718 37.4929 24.1718H37.4949L43.1049 24.1556C43.4924 24.1546 43.8061 23.8393 43.8049 23.4518C43.8039 23.0643 43.4899 22.7518 43.1036 22.7518Z" fill="#357491"/>
<path d="M7.60493 23.5544C7.60393 23.1669 7.28993 22.8544 6.90243 22.8544H6.90143L1.29143 22.8707C0.902681 22.8717 0.590184 23.187 0.591434 23.5745C0.592434 23.962 0.906433 24.2745 1.29268 24.2745H1.29468L6.90468 24.2582C7.29218 24.2572 7.60468 23.9419 7.60468 23.5544" fill="#357491"/>
<path d="M40.8905 32.902L35.9655 30.2107C35.6255 30.0245 35.1993 30.1494 35.013 30.4895C34.828 30.8295 34.953 31.257 35.293 31.442L40.2168 34.132C40.3243 34.192 40.4393 34.2194 40.553 34.2194C40.8005 34.2194 41.043 34.0869 41.1693 33.8544C41.3555 33.5132 41.2292 33.087 40.8905 32.902Z" fill="#357491"/>
<path d="M9.11448 15.5343L4.19073 12.8431C3.85073 12.6568 3.42323 12.7818 3.23823 13.1218C3.05198 13.4618 3.17693 13.8894 3.51698 14.0744L8.44073 16.7656C8.54823 16.8244 8.66324 16.8519 8.77699 16.8519C9.02574 16.8519 9.26698 16.7194 9.39448 16.4869C9.57948 16.1469 9.45448 15.7194 9.11448 15.5344" fill="#357491"/>
<path d="M30.9094 36.0898C30.7044 35.7623 30.2719 35.661 29.9431 35.8673C29.6144 36.0723 29.5144 36.506 29.7206 36.8335L32.6944 41.5923C32.8269 41.8048 33.0556 41.9211 33.2894 41.9211C33.4169 41.9211 33.5444 41.8873 33.6606 41.8148C33.9894 41.6098 34.0894 41.1761 33.8844 40.8473L30.9094 36.0898Z" fill="#357491"/>
<path d="M13.4973 10.8878C13.6298 11.1003 13.8598 11.2178 14.0923 11.2178C14.2198 11.2178 14.3486 11.1828 14.4636 11.1116C14.7923 10.9053 14.8923 10.4716 14.6873 10.1441L11.7123 5.38531C11.5073 5.05781 11.0748 4.95659 10.7448 5.16284C10.4161 5.36784 10.3173 5.80158 10.5223 6.12908L13.4973 10.8878Z" fill="#357491"/>
</svg>
