<svg width="50" height="50" viewBox="0 0 44 46" fill="none" xmlns="http://www.w3.org/2000/svg">
<path d="M21.2058 33.573C15.7271 33.573 11.2708 29.1155 11.2708 23.6367C11.2708 18.1592 15.7271 13.7018 21.2058 13.7018C26.6846 13.7018 31.1408 18.1592 31.1408 23.6367C31.1408 29.1155 26.6846 33.573 21.2058 33.573ZM21.2058 12.298C14.9533 12.298 9.86707 17.3842 9.86707 23.6367C9.86707 29.8892 14.9533 34.9768 21.2058 34.9768C27.4571 34.9768 32.5446 29.8892 32.5446 23.6367C32.5446 17.3842 27.4571 12.298 21.2058 12.298Z" fill="white"/>
<path d="M21.2058 8.97403C21.5933 8.97403 21.907 8.66026 21.907 8.27151V2.66647C21.907 2.27897 21.5933 1.96524 21.2058 1.96524C20.8183 1.96524 20.5033 2.27897 20.5033 2.66647V8.27151C20.5033 8.66026 20.8183 8.97403 21.2058 8.97403Z" fill="white"/>
<path d="M21.2058 38.1391C20.8183 38.1391 20.5033 38.4529 20.5033 38.8416V44.4466C20.5033 44.8341 20.8183 45.1479 21.2058 45.1479C21.5933 45.1479 21.907 44.8341 21.907 44.4466V38.8416C21.907 38.4529 21.5933 38.1391 21.2058 38.1391Z" fill="white"/>
<path d="M28.8834 11.1585C28.9984 11.2298 29.1259 11.2635 29.2522 11.2635C29.4872 11.2635 29.7171 11.146 29.8496 10.931L32.8009 6.16479C33.0034 5.83479 32.9022 5.40354 32.5734 5.19854C32.2434 4.99479 31.8109 5.09602 31.6071 5.42602L28.6559 10.1935C28.4522 10.5223 28.5534 10.9548 28.8834 11.1585" fill="white"/>
<path d="M13.5288 35.9546C13.2 35.7509 12.7663 35.8521 12.5625 36.1821L9.61129 40.9484C9.40754 41.2784 9.51004 41.7097 9.83879 41.9147C9.95504 41.9859 10.0813 42.0196 10.2075 42.0196C10.4425 42.0196 10.6725 41.9021 10.805 41.6871L13.7563 36.9197C13.96 36.5909 13.8575 36.1584 13.5288 35.9546" fill="white"/>
<path d="M34.6861 17.0619C34.7986 17.0619 34.9111 17.0357 35.0174 16.9794L39.9624 14.3306C40.3049 14.1481 40.4336 13.7232 40.2499 13.3807C40.0674 13.0407 39.6424 12.9107 39.2999 13.0944L34.3549 15.7419C34.0124 15.9244 33.8836 16.3506 34.0674 16.6919C34.1936 16.9281 34.4361 17.0619 34.6861 17.0619" fill="white"/>
<path d="M7.38495 30.1789L2.43745 32.8264C2.0962 33.0102 1.96745 33.4339 2.14995 33.7764C2.27745 34.0127 2.5187 34.1476 2.76995 34.1476C2.8812 34.1476 2.9937 34.1201 3.09995 34.0638L8.0462 31.4163C8.3887 31.2326 8.51745 30.8076 8.33495 30.4651C8.1512 30.1251 7.72745 29.9963 7.38495 30.1788" fill="white"/>
<path d="M42.1073 22.8163H42.1053L36.4953 22.8324C36.1078 22.8334 35.794 23.1487 35.7953 23.5362C35.7963 23.9224 36.1103 24.2362 36.4965 24.2362H36.4985L42.1085 24.22C42.496 24.219 42.8098 23.9038 42.8086 23.5163C42.8076 23.1288 42.4935 22.8163 42.1073 22.8163Z" fill="white"/>
<path d="M6.60859 23.6189C6.60759 23.2314 6.29359 22.9189 5.90609 22.9189H5.90509L0.295093 22.9352C-0.0936565 22.9362 -0.406153 23.2514 -0.404903 23.6389C-0.403903 24.0264 -0.0899053 24.3389 0.296345 24.3389H0.298344L5.90834 24.3226C6.29584 24.3216 6.60834 24.0064 6.60834 23.6189" fill="white"/>
<path d="M39.8942 32.9664L34.9692 30.2751C34.6292 30.0889 34.2029 30.2138 34.0167 30.5539C33.8317 30.8939 33.9567 31.3214 34.2967 31.5064L39.2204 34.1964C39.3279 34.2564 39.4429 34.2839 39.5567 34.2839C39.8042 34.2839 40.0467 34.1514 40.1729 33.9189C40.3592 33.5776 40.2329 33.1514 39.8942 32.9664" fill="white"/>
<path d="M8.11814 15.5987L3.1944 12.9075C2.8544 12.7213 2.42689 12.8462 2.24189 13.1863C2.05564 13.5263 2.1806 13.9538 2.52065 14.1388L7.4444 16.83C7.5519 16.8888 7.6669 16.9163 7.78065 16.9163C8.0294 16.9163 8.27064 16.7838 8.39814 16.5513C8.58314 16.2113 8.45814 15.7838 8.11814 15.5988" fill="white"/>
<path d="M29.913 36.1542C29.708 35.8267 29.2755 35.7255 28.9468 35.9317C28.618 36.1367 28.518 36.5705 28.7243 36.898L31.698 41.6567C31.8305 41.8692 32.0593 41.9855 32.293 41.9855C32.4205 41.9855 32.548 41.9518 32.6643 41.8792C32.993 41.6742 33.093 41.2405 32.888 40.9118L29.913 36.1542V36.1542Z" fill="white"/>
<path d="M12.501 10.9522C12.6335 11.1647 12.8635 11.2823 13.096 11.2823C13.2235 11.2823 13.3522 11.2472 13.4672 11.176C13.796 10.9697 13.896 10.536 13.691 10.2085L10.716 5.44973C10.511 5.12223 10.0785 5.02101 9.74848 5.22726C9.41973 5.43226 9.32098 5.86601 9.52598 6.19351L12.501 10.9522Z" fill="white"/>
</svg>
