<svg width="50" height="50" viewBox="0 0 51 40" fill="none" xmlns="http://www.w3.org/2000/svg">
<path d="M20.8363 37.8894L41.5525 37.8884C41.69 37.8884 41.8338 37.8884 41.9675 37.9034V37.8897C45.3513 37.8897 48.1038 35.1372 48.1038 31.7534C48.1038 28.3697 45.3513 25.6172 41.9675 25.6172C41.49 25.6172 40.9925 25.6785 40.4875 25.8034C40.3238 25.8434 40.15 25.8146 40.0088 25.7196C39.8688 25.6259 39.7738 25.4784 39.7475 25.3109C39.0625 20.9446 35.3563 17.7746 30.9375 17.7746C26.0138 17.7746 22.0075 21.7808 22.0075 26.7058C22.0075 26.9471 22.025 27.1859 22.0437 27.4234C22.0587 27.6021 21.9937 27.7784 21.865 27.9034C21.7362 28.0284 21.5587 28.0884 21.38 28.0721C21.2012 28.0533 21.0212 28.0408 20.8362 28.0408C18.1225 28.0408 15.9137 30.2508 15.9137 32.9646C15.9137 35.6796 18.1225 37.8896 20.8362 37.8896M20.8037 26.8358C20.8037 26.7933 20.8027 26.7495 20.8027 26.7058C20.8027 21.1171 25.349 16.5695 30.9377 16.5695C35.7427 16.5695 39.804 19.8721 40.8215 24.5058C41.2102 24.4421 41.5927 24.4121 41.9677 24.4121C46.0165 24.4121 49.309 27.7046 49.309 31.7534C49.309 35.8009 46.0165 39.0946 41.9677 39.0946H41.9617C41.8717 39.0936 39.5555 39.0936 36.4892 39.0936L20.8367 39.0946C17.458 39.0946 14.7092 36.3446 14.7092 32.9646C14.7092 29.5959 17.4392 26.8546 20.8042 26.8358" fill="white"/>
<path d="M8.84229 20.7519C8.84229 15.3844 13.2098 11.0181 18.576 11.0181C21.8585 11.0181 24.6998 12.4231 26.5085 15.1644C26.691 15.4431 26.6148 15.8169 26.3373 15.9994C26.0585 16.1844 25.6848 16.1069 25.5023 15.8294C23.9173 13.4269 21.451 12.2231 18.576 12.2231C13.8735 12.2231 10.0473 16.0481 10.0473 20.7519C10.0473 23.6631 11.5098 26.3456 13.9585 27.9243C14.2373 28.1056 14.3185 28.4781 14.1373 28.7569C14.0235 28.9369 13.8298 29.0331 13.6323 29.0331C13.5198 29.0331 13.406 29.0031 13.3048 28.9369C10.511 27.1344 8.84229 24.0744 8.84229 20.7519" fill="white"/>
<path d="M18.448 8.03702C18.1142 8.03702 17.8455 7.76826 17.8455 7.43576V2.62198C17.8455 2.28948 18.1142 2.02072 18.448 2.02072C18.7805 2.02072 19.0505 2.28948 19.0505 2.62198V7.43576C19.0505 7.76826 18.7805 8.03702 18.448 8.03702Z" fill="white"/>
<path d="M11.8568 9.91321C11.7581 9.97451 11.6493 10.0032 11.5405 10.0032C11.3393 10.0032 11.1418 9.90196 11.0268 9.71821L8.49428 5.62574C8.32053 5.34324 8.40679 4.97197 8.68929 4.79572C8.97304 4.62197 9.34303 4.7082 9.51928 4.99195L12.0518 9.0832C12.228 9.36695 12.1405 9.73696 11.8568 9.91321Z" fill="white"/>
<path d="M6.87503 14.9816C6.78003 14.9816 6.68253 14.9578 6.59128 14.9103L2.34629 12.6365C2.05254 12.4803 1.94129 12.1153 2.09879 11.8215C2.25504 11.5278 2.62003 11.4165 2.91503 11.574L7.16004 13.8478C7.45379 14.0053 7.56503 14.3703 7.40628 14.6628C7.29878 14.8665 7.09003 14.9816 6.87503 14.9816Z" fill="white"/>
<path d="M0.505341 19.9217H0.507339L5.32234 19.9356C5.65609 19.9356 5.92483 20.2068 5.92358 20.5393C5.92258 20.8718 5.65359 21.1405 5.32109 21.1405H5.32008L0.505081 21.1269C0.171331 21.1259 -0.0974121 20.8543 -0.0974121 20.5206C-0.0964121 20.1893 0.172581 19.9218 0.505081 19.9218" fill="white"/>
<path d="M2.40488 28.6351L6.63239 26.3239C6.92489 26.1652 7.29114 26.2714 7.44989 26.5651C7.60989 26.8564 7.50239 27.2226 7.20989 27.3814L2.98238 29.6926C2.89118 29.7426 2.79239 29.7651 2.69364 29.7651C2.48239 29.7651 2.27489 29.6527 2.16489 29.4514C2.00614 29.1602 2.11368 28.7939 2.40488 28.6351Z" fill="white"/>
<path d="M34.4891 12.4719L30.2616 14.7819C30.1691 14.8332 30.0704 14.8557 29.9729 14.8557C29.7604 14.8557 29.5529 14.7419 29.4441 14.5419C29.2841 14.2506 29.3916 13.8844 29.6841 13.7257L33.9116 11.4144C34.2041 11.2544 34.5691 11.3619 34.7291 11.6544C34.8879 11.9457 34.7816 12.3119 34.4891 12.4719Z" fill="white"/>
<path d="M10.9729 31.372C11.1504 31.0895 11.5204 31.0032 11.8041 31.182C12.0854 31.357 12.1704 31.7295 11.9941 32.0107L9.44038 36.0957C9.32663 36.2782 9.12914 36.3795 8.92914 36.3795C8.81914 36.3795 8.70913 36.3482 8.61038 36.2882C8.32788 36.1107 8.24163 35.7382 8.41913 35.4569L10.9729 31.3719V31.372Z" fill="white"/>
<path d="M25.921 9.73624C25.8073 9.91874 25.6098 10.02 25.4098 10.02C25.301 10.02 25.191 9.99003 25.091 9.92753C24.8085 9.75128 24.7235 9.37998 24.8998 9.09623L27.4548 5.01249C27.631 4.72999 28.0023 4.64377 28.2848 4.82127C28.566 4.99752 28.6523 5.36878 28.4748 5.65128L25.921 9.73624Z" fill="white"/>
</svg>
