<svg width="51" height="40" viewBox="0 0 51 40" fill="none" xmlns="http://www.w3.org/2000/svg">
<path d="M21.8326 37.825L42.5489 37.824C42.6864 37.824 42.8301 37.8239 42.9639 37.8389V37.8253C46.3476 37.8253 49.1001 35.0728 49.1001 31.689C49.1001 28.3053 46.3476 25.5527 42.9639 25.5527C42.4864 25.5527 41.9889 25.6141 41.4839 25.739C41.3201 25.779 41.1464 25.7502 41.0051 25.6552C40.8651 25.5615 40.7701 25.414 40.7439 25.2465C40.0589 20.8802 36.3526 17.7102 31.9339 17.7102C27.0101 17.7102 23.0039 21.7164 23.0039 26.6414C23.0039 26.8827 23.0214 27.1214 23.0401 27.3589C23.0551 27.5377 22.9901 27.7139 22.8613 27.8389C22.7326 27.9639 22.5551 28.0239 22.3763 28.0077C22.1976 27.9889 22.0176 27.9764 21.8326 27.9764C19.1188 27.9764 16.9101 30.1864 16.9101 32.9001C16.9101 35.6151 19.1188 37.8251 21.8326 37.8251M21.8001 26.7714C21.8001 26.7289 21.7991 26.6851 21.7991 26.6414C21.7991 21.0527 26.3453 16.5051 31.9341 16.5051C36.7391 16.5051 40.8003 19.8077 41.8178 24.4414C42.2066 24.3777 42.5891 24.3477 42.9641 24.3477C47.0128 24.3477 50.3053 27.6402 50.3053 31.689C50.3053 35.7365 47.0128 39.0302 42.9641 39.0302H42.9581C42.8681 39.0292 40.5518 39.0292 37.4856 39.0292L21.8331 39.0302C18.4543 39.0302 15.7056 36.2802 15.7056 32.9002C15.7056 29.5315 18.4356 26.7902 21.8006 26.7714" fill="#357491"/>
<path d="M9.83862 20.6874C9.83862 15.3199 14.2061 10.9537 19.5724 10.9537C22.8549 10.9537 25.6961 12.3587 27.5049 15.1C27.6874 15.3787 27.6111 15.7524 27.3336 15.9349C27.0549 16.1199 26.6811 16.0425 26.4986 15.765C24.9136 13.3625 22.4474 12.1587 19.5724 12.1587C14.8699 12.1587 11.0436 15.9837 11.0436 20.6874C11.0436 23.5987 12.5061 26.2812 14.9549 27.8599C15.2336 28.0412 15.3149 28.4137 15.1336 28.6924C15.0199 28.8724 14.8261 28.9687 14.6286 28.9687C14.5161 28.9687 14.4024 28.9387 14.3011 28.8725C11.5074 27.07 9.83862 24.01 9.83862 20.6875" fill="#357491"/>
<path d="M19.4443 7.9726C19.1105 7.9726 18.8418 7.70384 18.8418 7.37134V2.55756C18.8418 2.22506 19.1105 1.9563 19.4443 1.9563C19.7768 1.9563 20.0468 2.22506 20.0468 2.55756V7.37134C20.0468 7.70384 19.7768 7.9726 19.4443 7.9726Z" fill="#357491"/>
<path d="M12.8531 9.84879C12.7544 9.91009 12.6456 9.93882 12.5369 9.93882C12.3356 9.93882 12.1381 9.83753 12.0231 9.65378L9.49062 5.56132C9.31687 5.27882 9.40313 4.90755 9.68563 4.7313C9.96938 4.55755 10.3394 4.64378 10.5156 4.92753L13.0481 9.01877C13.2244 9.30252 13.1368 9.67254 12.8531 9.84879Z" fill="#357491"/>
<path d="M7.87137 14.9171C7.77637 14.9171 7.67887 14.8934 7.58762 14.8459L3.34262 12.5721C3.04887 12.4159 2.93763 12.0509 3.09513 11.7571C3.25138 11.4634 3.61636 11.3521 3.91136 11.5096L8.15637 13.7834C8.45012 13.9409 8.56137 14.3059 8.40262 14.5984C8.29512 14.8021 8.08637 14.9171 7.87137 14.9171Z" fill="#357491"/>
<path d="M1.50168 19.8573H1.50368L6.31868 19.8712C6.65243 19.8712 6.92117 20.1424 6.91992 20.4749C6.91892 20.8074 6.64993 21.0761 6.31743 21.0761H6.31642L1.50142 21.0624C1.16767 21.0614 0.898926 20.7899 0.898926 20.4562C0.899926 20.1249 1.16892 19.8574 1.50142 19.8574" fill="#357491"/>
<path d="M3.40122 28.5707L7.62873 26.2595C7.92123 26.1007 8.28748 26.2069 8.44623 26.5007C8.60623 26.7919 8.49872 27.1582 8.20622 27.317L3.97872 29.6282C3.88752 29.6782 3.78872 29.7007 3.68997 29.7007C3.47872 29.7007 3.27123 29.5882 3.16123 29.387C3.00248 29.0957 3.11002 28.7294 3.40122 28.5707Z" fill="#357491"/>
<path d="M35.4855 12.4075L31.258 14.7174C31.1655 14.7687 31.0667 14.7912 30.9692 14.7912C30.7567 14.7912 30.5492 14.6775 30.4405 14.4775C30.2805 14.1862 30.388 13.82 30.6805 13.6612L34.908 11.35C35.2005 11.19 35.5655 11.2975 35.7255 11.59C35.8842 11.8813 35.778 12.2475 35.4855 12.4075Z" fill="#357491"/>
<path d="M11.9692 31.3076C12.1467 31.0251 12.5167 30.9388 12.8005 31.1175C13.0817 31.2925 13.1667 31.665 12.9905 31.9463L10.4367 36.0313C10.323 36.2138 10.1255 36.3151 9.92547 36.3151C9.81547 36.3151 9.70547 36.2837 9.60672 36.2237C9.32422 36.0462 9.23796 35.6738 9.41546 35.3925L11.9692 31.3075V31.3076Z" fill="#357491"/>
<path d="M26.9174 9.67182C26.8036 9.85432 26.6061 9.95557 26.4061 9.95557C26.2974 9.95557 26.1874 9.9256 26.0874 9.8631C25.8049 9.68685 25.7199 9.31556 25.8961 9.03181L28.4511 4.94807C28.6274 4.66557 28.9986 4.57934 29.2811 4.75684C29.5624 4.93309 29.6486 5.30436 29.4711 5.58686L26.9174 9.67182Z" fill="#357491"/>
</svg>
