<svg width="50" height="50" viewBox="0 0 47 44" fill="none" xmlns="http://www.w3.org/2000/svg">
<path d="M23.2552 38.5185C22.9815 38.3797 22.6477 38.4922 22.5102 38.766L20.524 42.7135C20.3878 42.9885 20.4965 43.3222 20.7703 43.4585C20.8528 43.4985 20.9378 43.5185 21.0215 43.5185C21.2228 43.5185 21.419 43.4073 21.5178 43.2123L23.5015 39.2635C23.639 38.991 23.5303 38.656 23.2552 38.5185Z" fill="white"/>
<path d="M30.3306 38.5185C30.0543 38.3797 29.7231 38.4922 29.5831 38.766L27.5994 42.7135C27.4606 42.9885 27.5719 43.3222 27.8494 43.4585C27.9282 43.4985 28.0119 43.5185 28.0969 43.5185C28.2981 43.5185 28.4943 43.4073 28.5906 43.2123L30.5768 39.2635C30.7143 38.991 30.6031 38.656 30.3306 38.5185Z" fill="white"/>
<path d="M37.4057 38.5185C37.1269 38.3797 36.7957 38.4922 36.6582 38.766L34.6744 42.7135C34.5357 42.9885 34.6469 43.3222 34.9206 43.4585C34.9981 43.4985 35.0869 43.5185 35.1694 43.5185C35.3731 43.5185 35.5694 43.4073 35.6656 43.2123L37.6519 39.2635C37.7894 38.991 37.6782 38.656 37.4057 38.5185Z" fill="white"/>
<path d="M20.2236 34.6654L39.3261 34.6644C39.4524 34.6644 39.5836 34.6643 39.7086 34.6768V34.6657C42.8274 34.6657 45.3661 32.1269 45.3661 29.0069C45.3661 25.8882 42.8274 23.3494 39.7086 23.3494C39.2661 23.3494 38.8086 23.4082 38.3436 23.5219C38.1936 23.5581 38.0324 23.5319 37.9036 23.4444C37.7711 23.3607 37.6861 23.2219 37.6599 23.0694C37.0286 19.0419 33.6136 16.1207 29.5374 16.1207C24.9986 16.1207 21.3036 19.8144 21.3036 24.3544C21.3036 24.5769 21.3198 24.7969 21.3411 25.0144C21.3524 25.1794 21.2911 25.3432 21.1724 25.4582C21.0561 25.5744 20.8899 25.6294 20.7249 25.6144C20.5624 25.5956 20.3949 25.5844 20.2236 25.5844C17.7224 25.5844 15.6849 27.6232 15.6849 30.1244C15.6849 32.6282 17.7224 34.6654 20.2236 34.6654ZM20.1948 24.4744V24.3544C20.1948 19.2019 24.3861 15.0094 29.5373 15.0094C33.9698 15.0094 37.7148 18.0519 38.6511 22.3257C39.0098 22.2669 39.3623 22.2382 39.7086 22.2382C43.4398 22.2382 46.4786 25.2744 46.4786 29.0069C46.4786 32.7407 43.4398 35.7769 39.7086 35.7769H39.7036H34.6561H20.2236C17.1098 35.7769 14.5748 33.2407 14.5748 30.1244C14.5748 27.0194 17.0936 24.4906 20.1948 24.4744Z" fill="white"/>
<path d="M9.16528 18.8658C9.16528 13.917 13.1928 9.8895 18.1415 9.8895C21.1678 9.8895 23.7865 11.1857 25.454 13.7132C25.6228 13.9695 25.5527 14.3145 25.2965 14.482C25.0403 14.652 24.6978 14.5833 24.5266 14.3258C23.0653 12.1108 20.7928 11.0008 18.1415 11.0008C13.8053 11.0008 10.2778 14.5283 10.2778 18.8658C10.2778 21.5483 11.6253 24.0207 13.8815 25.4782C14.1403 25.6445 14.2165 25.987 14.0478 26.2458C13.9415 26.4108 13.7665 26.5008 13.5828 26.5008C13.479 26.5008 13.3728 26.472 13.2828 26.412C10.7041 24.7495 9.16528 21.9294 9.16528 18.8657" fill="white"/>
<path d="M18.0226 7.14212C17.7176 7.14212 17.4663 6.8921 17.4663 6.58585V2.14835C17.4663 1.8421 17.7176 1.59464 18.0226 1.59464C18.3301 1.59464 18.5776 1.8421 18.5776 2.14835V6.58585C18.5776 6.8921 18.3301 7.14212 18.0226 7.14212Z" fill="white"/>
<path d="M11.9459 8.86998C11.8546 8.92748 11.7547 8.95378 11.6559 8.95378C11.4697 8.95378 11.2859 8.86133 11.1809 8.69133L8.84594 4.91753C8.68469 4.65753 8.76463 4.31504 9.02593 4.15379C9.28718 3.99129 9.62844 4.07261 9.79094 4.33256L12.1272 8.10631C12.2859 8.36756 12.2072 8.71004 11.9459 8.87004" fill="white"/>
<path d="M7.35253 13.5441C7.26503 13.5441 7.17376 13.5229 7.09126 13.478L3.17626 11.3829C2.90501 11.2367 2.80378 10.9004 2.95003 10.6304C3.09378 10.3604 3.43003 10.2592 3.70128 10.4029L7.61376 12.4992C7.88626 12.6442 7.98877 12.9805 7.84502 13.2517C7.74252 13.438 7.54878 13.5442 7.35253 13.5442" fill="white"/>
<path d="M1.47971 18.0991H1.48169L5.92044 18.1116C6.22794 18.1126 6.47543 18.3616 6.47543 18.6691C6.47343 18.9753 6.22544 19.2229 5.92044 19.2229H5.91843L1.47971 19.2092C1.17221 19.2082 0.924683 18.9579 0.924683 18.6516C0.926683 18.3454 1.17471 18.0992 1.47971 18.0992" fill="white"/>
<path d="M3.23136 26.1333L7.1276 24.0032C7.39635 23.8557 7.73635 23.9545 7.88385 24.2232C8.0301 24.4932 7.93005 24.8307 7.66385 24.9782L3.76386 27.107C3.68006 27.1545 3.58759 27.1758 3.49759 27.1758C3.30384 27.1758 3.10885 27.072 3.0076 26.887C2.86385 26.617 2.96131 26.2795 3.23136 26.1333Z" fill="white"/>
<path d="M32.8138 11.2309L28.9151 13.3609C28.8288 13.4072 28.7389 13.4284 28.6489 13.4284C28.4526 13.4284 28.2626 13.3234 28.1614 13.1396C28.0151 12.8709 28.1126 12.5321 28.3839 12.3846L32.2788 10.2559C32.5476 10.1084 32.8876 10.2071 33.0338 10.4759C33.1813 10.7446 33.0838 11.0821 32.8138 11.2309Z" fill="white"/>
<path d="M11.1306 28.657C11.2943 28.3958 11.6343 28.317 11.8956 28.4795C12.1543 28.642 12.2356 28.9845 12.0718 29.247L9.71684 33.012C9.61309 33.1795 9.42934 33.2732 9.24559 33.2732C9.14809 33.2732 9.04433 33.2445 8.95433 33.1883C8.69308 33.0258 8.61183 32.682 8.77433 32.4233L11.1306 28.657Z" fill="white"/>
<path d="M24.9111 8.70823C24.8086 8.87573 24.6261 8.96824 24.4411 8.96824C24.3398 8.96824 24.2398 8.94192 24.1486 8.88572C23.8886 8.72072 23.8098 8.37826 23.9698 8.11826L26.3286 4.35325C26.4898 4.09325 26.8298 4.01323 27.0936 4.17698C27.3523 4.33823 27.4311 4.68199 27.2698 4.94199L24.9111 8.70823Z" fill="white"/>
</svg>
