<svg width="50" height="50" viewBox="0 0 48 44" fill="none" xmlns="http://www.w3.org/2000/svg">
<path d="M15.0851 33.199C14.7664 33.0415 14.3801 33.169 14.2201 33.4865L9.87386 42.179C9.71511 42.4965 9.84387 42.884 10.1626 43.044C10.2551 43.0902 10.3539 43.1128 10.4501 43.1128C10.6876 43.1128 10.9151 42.9816 11.0276 42.7566L15.3739 34.0628C15.5326 33.7453 15.4039 33.3578 15.0851 33.1991" fill="white"/>
<path d="M22.3343 33.199C22.0155 33.0415 21.6292 33.169 21.4692 33.4865L17.123 42.179C16.9643 42.4965 17.093 42.884 17.4117 43.044C17.5042 43.0902 17.6017 43.1128 17.6992 43.1128C17.9355 43.1128 18.163 42.9816 18.2768 42.7566L22.6218 34.0628C22.7818 33.7453 22.6531 33.3578 22.3343 33.1991" fill="white"/>
<path d="M29.5828 33.199C29.2653 33.0415 28.8778 33.169 28.7178 33.4865L24.3715 42.179C24.2128 42.4965 24.3415 42.884 24.6603 43.044C24.7528 43.0902 24.8503 43.1128 24.9478 43.1128C25.184 43.1128 25.4128 42.9816 25.5253 42.7566L29.8715 34.0628C30.0303 33.7453 29.9015 33.3578 29.5828 33.1991" fill="white"/>
<path d="M36.8313 33.199C36.5125 33.0415 36.1263 33.169 35.9663 33.4865L31.62 42.179C31.46 42.4965 31.59 42.884 31.9088 43.044C32.0013 43.0902 32.0988 43.1128 32.1963 43.1128C32.4325 43.1128 32.66 42.9816 32.7738 42.7566L37.1188 34.0628C37.2788 33.7453 37.1501 33.3578 36.8313 33.1991" fill="white"/>
<path d="M44.0792 33.199C43.7605 33.0415 43.3743 33.169 43.2143 33.4865L38.868 42.179C38.7093 42.4965 38.838 42.884 39.1568 43.044C39.2493 43.0902 39.3467 43.1128 39.4442 43.1128C39.6805 43.1128 39.9092 42.9816 40.0217 42.7566L44.368 34.0628C44.5268 33.7453 44.398 33.3578 44.0792 33.1991" fill="white"/>
<path d="M17.7918 28.2942H39.968C40.1155 28.2942 40.2693 28.2943 40.413 28.3105V28.2942C44.0355 28.2942 46.9818 25.348 46.9818 21.7242C46.9818 18.103 44.0355 15.1555 40.413 15.1555C39.9005 15.1555 39.368 15.223 38.828 15.3555C38.653 15.4005 38.4681 15.368 38.3156 15.268C38.1656 15.168 38.0643 15.0092 38.0355 14.8305C37.3018 10.1555 33.3355 6.76175 28.6043 6.76175C23.3343 6.76175 19.0455 11.0505 19.0455 16.3217C19.0455 16.5817 19.063 16.8367 19.0843 17.0905C19.1005 17.2817 19.0305 17.4717 18.8918 17.6055C18.7543 17.7405 18.5631 17.8042 18.3718 17.7855C18.1818 17.7642 17.9881 17.7518 17.7918 17.7518C14.8856 17.7518 12.5218 20.1168 12.5218 23.023C12.5218 25.9293 14.8856 28.2943 17.7918 28.2943M17.7568 16.4618C17.7558 16.4156 17.7558 16.3693 17.7558 16.3218C17.7558 10.3406 22.6233 5.47177 28.6046 5.47177C33.7496 5.47177 38.0971 9.00555 39.1859 13.968C39.6009 13.8992 40.0108 13.8656 40.4133 13.8656C44.7458 13.8656 48.2721 17.3905 48.2721 21.7243C48.2721 26.058 44.7459 29.583 40.4096 29.583H34.5483H17.7921C14.1746 29.583 11.2308 26.6405 11.2308 23.023C11.2308 19.4168 14.1558 16.4805 17.7571 16.4618" fill="white"/>
<path d="M9.89258 9.51987C10.2951 9.51987 10.7051 9.55357 11.1188 9.62112C12.2088 4.65862 16.5564 1.12613 21.7001 1.12613C23.9414 1.12613 26.0901 1.80237 27.9176 3.08487C28.2101 3.28862 28.2801 3.68986 28.0764 3.98111C27.8714 4.27361 27.4701 4.34361 27.1776 4.13986C25.5688 3.01236 23.6739 2.41489 21.7001 2.41489C16.9701 2.41489 13.0026 5.80861 12.2688 10.4836C12.2413 10.6624 12.1401 10.8211 11.9888 10.9211C11.8388 11.0211 11.6539 11.0524 11.4776 11.0099C10.9389 10.8774 10.4063 10.8099 9.89258 10.8099C6.27008 10.8099 3.32385 13.7574 3.32385 17.3787C3.32385 20.7574 5.85383 23.5662 9.20883 23.9124C9.56383 23.9486 9.82135 24.2662 9.7851 24.6199C9.7501 24.9524 9.47008 25.1987 9.14383 25.1987C9.12133 25.1987 9.09886 25.1977 9.07635 25.1967C5.06136 24.7817 2.03259 21.4217 2.03259 17.3792C2.03259 13.0454 5.55883 9.52042 9.89258 9.52042" fill="white"/>
</svg>
