<svg width="50" height="50" viewBox="0 0 48 30" fill="none" xmlns="http://www.w3.org/2000/svg">
<path d="M16.52 27.6837H38.5625C38.71 27.6837 38.8625 27.6837 39.005 27.6987V27.6837C42.605 27.6837 45.535 24.7537 45.535 21.1537C45.535 17.5537 42.605 14.6249 39.005 14.6249C38.4963 14.6249 37.965 14.6911 37.4312 14.8237C37.2562 14.8674 37.0712 14.8361 36.9212 14.7361C36.7712 14.6361 36.67 14.4786 36.6438 14.3011C35.9138 9.65365 31.9712 6.28241 27.2687 6.28241C22.03 6.28241 17.7663 10.5449 17.7663 15.7837C17.7663 16.0424 17.785 16.2962 17.8049 16.5474C17.8224 16.7374 17.7512 16.9262 17.615 17.0599C17.4787 17.1924 17.2875 17.2574 17.0987 17.2386C16.9087 17.2174 16.715 17.205 16.52 17.205C13.6325 17.205 11.2824 19.5549 11.2824 22.4449C11.2824 25.3337 13.6325 27.6837 16.52 27.6837M16.4863 15.9225V15.7837C16.4863 9.83869 21.3225 5 27.2687 5C32.3812 5 36.7025 8.51244 37.7863 13.4424C38.1988 13.3762 38.605 13.3412 39.005 13.3412C43.3138 13.3412 46.8163 16.8462 46.8163 21.1537C46.8163 25.4612 43.3138 28.965 39.0025 28.965H33.1762H16.52C12.925 28.965 10 26.0399 10 22.4449C10 18.8587 12.905 15.9412 16.4863 15.9225Z" fill="white"/>
<path d="M8.8112 9.34375C9.21119 9.34375 9.6187 9.37626 10.0312 9.44501C11.1137 4.51251 15.4349 1 20.5487 1C22.7737 1 24.9112 1.67379 26.7274 2.94629C27.0174 3.15004 27.0887 3.54878 26.8849 3.84003C26.6812 4.12878 26.2824 4.20003 25.9924 3.99628C24.3924 2.87503 22.5099 2.28375 20.5487 2.28375C15.8462 2.28375 11.9037 5.65505 11.1749 10.3026C11.1449 10.4788 11.0437 10.6363 10.895 10.7363C10.745 10.835 10.5612 10.8675 10.3862 10.8251C9.8512 10.6926 9.32244 10.6251 8.8112 10.6251C5.2112 10.6251 2.2812 13.5551 2.2812 17.1551C2.2812 20.5138 4.7962 23.3051 8.1312 23.6488C8.4837 23.6851 8.73995 24.0014 8.7037 24.3526C8.6699 24.6826 8.3912 24.9276 8.0662 24.9276C8.0449 24.9276 8.0225 24.9276 8 24.9256C4.00875 24.5143 1 21.1731 1 17.1556C1 12.8493 4.50375 9.3443 8.81125 9.3443" fill="white"/>
</svg>
