<svg width="38" height="25" viewBox="0 0 38 25" fill="none" xmlns="http://www.w3.org/2000/svg">
<path d="M6.70474 23.3238H29.3685C29.5185 23.3238 29.6773 23.3238 29.8223 23.34V23.3238C33.5248 23.3238 36.5373 20.3125 36.5373 16.61C36.5373 12.9075 33.5248 9.89502 29.8223 9.89502C29.2998 9.89502 28.7547 9.96501 28.2022 10.1013C28.026 10.1463 27.8347 10.1138 27.6797 10.0113C27.526 9.90754 27.4222 9.74628 27.3947 9.56378C26.6435 4.78503 22.5898 1.3175 17.7548 1.3175C12.3673 1.3175 7.98474 5.70002 7.98474 11.0875C7.98474 11.3538 8.00355 11.6138 8.02475 11.8726C8.04095 12.0688 7.96974 12.2625 7.82724 12.4C7.68724 12.5375 7.49224 12.6038 7.29724 12.5838C7.10099 12.5625 6.90474 12.5488 6.70474 12.5488C3.73349 12.5488 1.31601 14.965 1.31601 17.9363C1.31601 20.9075 3.73349 23.3238 6.70474 23.3238ZM6.66724 11.2313C6.66724 11.1838 6.66626 11.1363 6.66626 11.0875C6.66626 4.97377 11.6413 0 17.755 0C23.0125 0 27.4575 3.61127 28.5688 8.68127C28.9925 8.61257 29.4125 8.57751 29.8225 8.57751C34.2525 8.57751 37.8563 12.18 37.8563 16.61C37.8563 21.0375 34.2525 24.6413 29.82 24.6413H23.8288H6.70499C3.00624 24.6413 0 21.6338 0 17.9363C0 14.2513 2.98626 11.25 6.66751 11.2313" fill="white"/>
</svg>
