<svg width="48" height="44" viewBox="0 0 48 44" fill="none" xmlns="http://www.w3.org/2000/svg">
<path d="M14.0851 33.199C13.7664 33.0415 13.3801 33.169 13.2201 33.4865L8.87386 42.179C8.71511 42.4965 8.84387 42.884 9.16262 43.044C9.25512 43.0902 9.35387 43.1128 9.45012 43.1128C9.68762 43.1128 9.91511 42.9816 10.0276 42.7566L14.3739 34.0628C14.5326 33.7453 14.4039 33.3578 14.0851 33.1991" fill="#357491"/>
<path d="M21.3343 33.199C21.0155 33.0415 20.6292 33.169 20.4692 33.4865L16.123 42.179C15.9643 42.4965 16.093 42.884 16.4117 43.044C16.5042 43.0902 16.6017 43.1128 16.6992 43.1128C16.9355 43.1128 17.163 42.9816 17.2768 42.7566L21.6218 34.0628C21.7818 33.7453 21.6531 33.3578 21.3343 33.1991" fill="#357491"/>
<path d="M28.5828 33.199C28.2653 33.0415 27.8778 33.169 27.7178 33.4865L23.3715 42.179C23.2128 42.4965 23.3415 42.884 23.6603 43.044C23.7528 43.0902 23.8503 43.1128 23.9478 43.1128C24.184 43.1128 24.4128 42.9816 24.5253 42.7566L28.8715 34.0628C29.0303 33.7453 28.9015 33.3578 28.5828 33.1991" fill="#357491"/>
<path d="M35.8313 33.199C35.5125 33.0415 35.1263 33.169 34.9663 33.4865L30.62 42.179C30.46 42.4965 30.59 42.884 30.9088 43.044C31.0013 43.0902 31.0988 43.1128 31.1963 43.1128C31.4325 43.1128 31.66 42.9816 31.7738 42.7566L36.1188 34.0628C36.2788 33.7453 36.1501 33.3578 35.8313 33.1991" fill="#357491"/>
<path d="M43.0792 33.199C42.7605 33.0415 42.3743 33.169 42.2143 33.4865L37.868 42.179C37.7093 42.4965 37.838 42.884 38.1568 43.044C38.2493 43.0902 38.3467 43.1128 38.4442 43.1128C38.6805 43.1128 38.9092 42.9816 39.0217 42.7566L43.368 34.0628C43.5268 33.7453 43.398 33.3578 43.0792 33.1991" fill="#357491"/>
<path d="M16.7918 28.2942H38.968C39.1155 28.2942 39.2693 28.2943 39.413 28.3105V28.2942C43.0355 28.2942 45.9818 25.348 45.9818 21.7242C45.9818 18.103 43.0355 15.1555 39.413 15.1555C38.9005 15.1555 38.368 15.223 37.828 15.3555C37.653 15.4005 37.4681 15.368 37.3156 15.268C37.1656 15.168 37.0643 15.0092 37.0355 14.8305C36.3018 10.1555 32.3355 6.76175 27.6043 6.76175C22.3343 6.76175 18.0455 11.0505 18.0455 16.3217C18.0455 16.5817 18.063 16.8367 18.0843 17.0905C18.1005 17.2817 18.0305 17.4717 17.8918 17.6055C17.7543 17.7405 17.5631 17.8042 17.3718 17.7855C17.1818 17.7642 16.9881 17.7518 16.7918 17.7518C13.8856 17.7518 11.5218 20.1168 11.5218 23.023C11.5218 25.9293 13.8856 28.2943 16.7918 28.2943M16.7568 16.4618C16.7558 16.4156 16.7558 16.3693 16.7558 16.3218C16.7558 10.3406 21.6233 5.47177 27.6046 5.47177C32.7496 5.47177 37.0971 9.00555 38.1859 13.968C38.6009 13.8992 39.0108 13.8656 39.4133 13.8656C43.7458 13.8656 47.2721 17.3905 47.2721 21.7243C47.2721 26.058 43.7459 29.583 39.4096 29.583H33.5483H16.7921C13.1746 29.583 10.2308 26.6405 10.2308 23.023C10.2308 19.4168 13.1558 16.4805 16.7571 16.4618" fill="#357491"/>
<path d="M8.89258 9.51987C9.29508 9.51987 9.70509 9.55357 10.1188 9.62112C11.2088 4.65862 15.5564 1.12613 20.7001 1.12613C22.9414 1.12613 25.0901 1.80237 26.9176 3.08487C27.2101 3.28862 27.2801 3.68986 27.0764 3.98111C26.8714 4.27361 26.4701 4.34361 26.1776 4.13986C24.5688 3.01236 22.6739 2.41489 20.7001 2.41489C15.9701 2.41489 12.0026 5.80861 11.2688 10.4836C11.2413 10.6624 11.1401 10.8211 10.9888 10.9211C10.8388 11.0211 10.6539 11.0524 10.4776 11.0099C9.93885 10.8774 9.40633 10.8099 8.89258 10.8099C5.27008 10.8099 2.32385 13.7574 2.32385 17.3787C2.32385 20.7574 4.85383 23.5662 8.20883 23.9124C8.56383 23.9486 8.82135 24.2662 8.7851 24.6199C8.7501 24.9524 8.47008 25.1987 8.14383 25.1987C8.12133 25.1987 8.09885 25.1977 8.07635 25.1967C4.06136 24.7817 1.03259 21.4217 1.03259 17.3792C1.03259 13.0454 4.55883 9.52042 8.89258 9.52042" fill="#357491"/>
</svg>
