<svg width="50" height="40" viewBox="0 0 50 40" fill="none" xmlns="http://www.w3.org/2000/svg">
<path d="M17.0884 29.433H40.7084C40.8659 29.433 41.0296 29.433 41.1834 29.4505V29.433C45.0409 29.433 48.1809 26.2955 48.1809 22.4367C48.1809 18.578 45.0409 15.4392 41.1834 15.4392C40.6359 15.4392 40.0684 15.5118 39.4946 15.6543C39.3084 15.6993 39.1109 15.6655 38.9496 15.5592C38.7896 15.4517 38.6809 15.283 38.6509 15.093C37.8696 10.113 33.6446 6.49924 28.6059 6.49924C22.9909 6.49924 18.4221 11.068 18.4221 16.683C18.4221 16.9593 18.4421 17.2317 18.4659 17.5017C18.4809 17.7055 18.4059 17.9055 18.2597 18.0492C18.1134 18.1917 17.9097 18.2618 17.7084 18.2405C17.5034 18.2192 17.2984 18.2055 17.0884 18.2055C13.9922 18.2055 11.4747 20.7242 11.4747 23.8192C11.4747 26.9142 13.9922 29.433 17.0884 29.433M17.0509 16.8318C17.0499 16.7818 17.0499 16.7318 17.0499 16.683C17.0499 10.3093 22.2337 5.12552 28.6062 5.12552C34.0849 5.12552 38.7162 8.88925 39.8762 14.173C40.3174 14.103 40.7549 14.0655 41.1837 14.0655C45.7987 14.0655 49.5549 17.8217 49.5549 22.4367C49.5549 27.0517 45.7987 30.8067 41.1799 30.8067H34.9362H17.0887C13.2349 30.8067 10.1012 27.673 10.1012 23.8192C10.1012 19.9792 13.2149 16.8518 17.0512 16.8318" fill="#357491"/>
<path d="M8.67477 9.43674C9.10477 9.43674 9.54227 9.47292 9.98102 9.54422C11.1435 4.26047 15.7735 0.495514 21.2523 0.495514C23.6373 0.495514 25.9273 1.21801 27.8748 2.58176C28.186 2.79926 28.2598 3.22928 28.0435 3.53928C27.8248 3.84928 27.3973 3.92548 27.086 3.70798C25.371 2.50548 23.3548 1.86923 21.2523 1.86923C16.2135 1.86923 11.9873 5.48426 11.206 10.4643C11.176 10.6555 11.0685 10.823 10.9073 10.9305C10.7485 11.0355 10.551 11.0705 10.3623 11.0255C9.78977 10.8817 9.22227 10.8105 8.67477 10.8105C4.81727 10.8105 1.67728 13.9492 1.67728 17.8067C1.67728 21.4067 4.37355 24.398 7.9473 24.7668C8.3248 24.8068 8.59853 25.1442 8.55978 25.5205C8.52228 25.8742 8.22479 26.138 7.87729 26.138C7.85359 26.138 7.82979 26.137 7.80609 26.134C3.52984 25.6915 0.303589 22.1127 0.303589 17.8065C0.303589 13.1915 4.05984 9.43649 8.67484 9.43649" fill="#357491"/>
<path d="M16.4116 34.6431C16.0448 34.644 15.7487 34.94 15.7478 35.3069V36.3286H14.7261C14.3601 36.3286 14.0631 36.6257 14.0623 36.9925C14.0631 37.3593 14.3601 37.6562 14.7261 37.6562H15.7478L15.7469 38.6772C15.7469 39.0431 16.0439 39.34 16.4107 39.3409C16.5946 39.3409 16.7616 39.2658 16.881 39.1465C17.0012 39.0262 17.0754 38.8601 17.0745 38.6772L17.0754 37.6562L18.0963 37.6554C18.2802 37.6554 18.4454 37.5819 18.5656 37.4618C18.6858 37.3416 18.7601 37.1754 18.7601 36.9915C18.7592 36.6247 18.4622 36.3278 18.0963 36.3278L17.0754 36.3286V35.3069C17.0754 34.9409 16.7784 34.644 16.4116 34.6431" fill="#357491"/>
<path d="M28.4116 34.6431C28.0448 34.644 27.7487 34.94 27.7478 35.3069V36.3286H26.7261C26.3601 36.3286 26.0631 36.6257 26.0623 36.9925C26.0631 37.3593 26.3601 37.6562 26.7261 37.6562H27.7478L27.7469 38.6772C27.7469 39.0431 28.0439 39.34 28.4107 39.3409C28.5946 39.3409 28.7616 39.2658 28.881 39.1465C29.0012 39.0262 29.0754 38.8601 29.0745 38.6772L29.0754 37.6562L30.0963 37.6554C30.2802 37.6554 30.4454 37.5819 30.5656 37.4618C30.6858 37.3416 30.7601 37.1754 30.7601 36.9915C30.7592 36.6247 30.4622 36.3278 30.0963 36.3278L29.0754 36.3286V35.3069C29.0754 34.9409 28.7784 34.644 28.4116 34.6431" fill="#357491"/>
<path d="M40.4116 34.6431C40.0448 34.644 39.7487 34.94 39.7478 35.3069V36.3286H38.7261C38.3601 36.3286 38.0631 36.6257 38.0623 36.9925C38.0631 37.3593 38.3601 37.6562 38.7261 37.6562H39.7478L39.7469 38.6772C39.7469 39.0431 40.0439 39.34 40.4107 39.3409C40.5946 39.3409 40.7616 39.2658 40.881 39.1465C41.0012 39.0262 41.0754 38.8601 41.0745 38.6772L41.0754 37.6562L42.0963 37.6554C42.2802 37.6554 42.4454 37.5819 42.5656 37.4618C42.6858 37.3416 42.7601 37.1754 42.7601 36.9915C42.7592 36.6247 42.4622 36.3278 42.0963 36.3278L41.0754 36.3286V35.3069C41.0754 34.9409 40.7784 34.644 40.4116 34.6431" fill="#357491"/>
</svg>
