<svg width="50" height="50" viewBox="0 0 46 49" fill="none" xmlns="http://www.w3.org/2000/svg">
<path d="M15.9221 26.6685H37.0321C37.1721 26.6685 37.3183 26.6685 37.4558 26.6835V26.6685C40.9033 26.6685 43.7083 23.8635 43.7083 20.416C43.7083 16.9672 40.9033 14.1635 37.4558 14.1635C36.9658 14.1635 36.4596 14.2272 35.9483 14.3523C35.7808 14.3948 35.6033 14.3647 35.4596 14.2697C35.3171 14.1735 35.2196 14.0222 35.1933 13.8535C34.4946 9.40224 30.7183 6.17349 26.2133 6.17349C21.1971 6.17349 17.1146 10.2547 17.1146 15.2722C17.1146 15.5197 17.1334 15.7635 17.1521 16.006C17.1658 16.1873 17.0983 16.3672 16.9684 16.4935C16.8371 16.6222 16.6558 16.6848 16.4746 16.6648C16.2933 16.6461 16.1083 16.6335 15.9221 16.6335C13.1546 16.6335 10.9034 18.8847 10.9034 21.651C10.9034 24.4172 13.1546 26.6684 15.9221 26.6684M15.8884 15.406C15.8884 15.3623 15.8874 15.3171 15.8874 15.2722C15.8874 9.57719 20.5212 4.94467 26.2137 4.94467C31.1124 4.94467 35.2511 8.30848 36.2874 13.031C36.6811 12.9673 37.0724 12.9347 37.4561 12.9347C41.5799 12.9347 44.9374 16.291 44.9374 20.416C44.9374 24.541 41.5799 27.896 37.4524 27.896H31.8724H15.9224C12.4786 27.896 9.67615 25.0947 9.67615 21.651C9.67615 18.2185 12.4599 15.4235 15.8886 15.406" fill="white"/>
<path d="M8.4014 8.79739C8.7864 8.79739 9.17638 8.82989 9.57138 8.89359C10.6089 4.17109 14.7464 0.807343 19.6426 0.807343C21.7739 0.807343 23.8214 1.4523 25.5626 2.67105C25.8389 2.8648 25.9064 3.24859 25.7126 3.52609C25.5151 3.80359 25.1364 3.87109 24.8564 3.67734C23.3239 2.60234 21.5214 2.0336 19.6426 2.0336C15.1401 2.0336 11.3639 5.26484 10.6664 9.71609C10.6376 9.8861 10.5414 10.036 10.3976 10.1323C10.2551 10.2273 10.0801 10.2573 9.91013 10.2173C9.40013 10.0898 8.89265 10.0248 8.4014 10.0248C4.95515 10.0248 2.1489 12.8311 2.1489 16.2786C2.1489 19.4948 4.55887 22.1686 7.75137 22.4973C8.08887 22.5335 8.33389 22.8348 8.30014 23.1723C8.26764 23.4886 8.00137 23.7223 7.69012 23.7223C7.66762 23.7223 7.64642 23.7213 7.62512 23.7203C3.80387 23.3253 0.921387 20.1266 0.921387 16.2791C0.921387 12.1541 4.2764 8.79782 8.4014 8.79782" fill="white"/>
<path d="M13.5675 33.0713C13.2325 32.905 12.8249 33.0388 12.6562 33.3763L8.07246 42.545C7.90371 42.8812 8.03995 43.2888 8.37495 43.4575C8.47245 43.5062 8.57744 43.5287 8.67994 43.5287C8.92869 43.5287 9.16745 43.3912 9.28745 43.1525L13.8724 33.9837C14.0412 33.6475 13.905 33.2387 13.5675 33.0712" fill="white"/>
<path d="M22.57 33.0713C22.2325 32.905 21.8249 33.0388 21.6574 33.3763L17.0725 42.545C16.9037 42.8812 17.0399 43.2888 17.3749 43.4575C17.4749 43.5062 17.5774 43.5287 17.6799 43.5287C17.9287 43.5287 18.1687 43.3912 18.2875 43.1525L22.8724 33.9837C23.0412 33.6475 22.905 33.2388 22.57 33.0713Z" fill="white"/>
<path d="M29.0823 29C28.8935 29 28.6872 29.0565 28.534 29.1713C28.3863 29.2821 28.2768 29.4378 28.2257 29.6168V29.6339L26.0156 38.6799V38.6971C25.9569 38.9781 26.0673 39.2998 26.2897 39.4852C26.4516 39.6225 26.6629 39.7079 26.8722 39.7079C26.94 39.7079 27.0115 39.6932 27.0949 39.6736H27.1121L30.9326 38.7313L28.9281 46.9549C28.927 46.9604 28.9292 46.9666 28.9281 46.972C28.8828 47.1727 28.9068 47.413 29.0138 47.5888C29.1244 47.7712 29.3104 47.9067 29.5106 47.9657H29.5278H29.562C29.6439 47.9819 29.6907 48 29.7848 48C30.1067 48 30.441 47.8064 30.59 47.5203V47.5032L36.5007 34.8251C36.621 34.5629 36.5527 34.2198 36.3808 33.9856C36.3665 33.9662 36.3797 33.9349 36.3636 33.9171L36.2266 34.0199L36.3465 33.9C36.1796 33.733 35.9519 33.6263 35.7126 33.6258C35.6188 33.6258 35.5621 33.6422 35.4899 33.6601L31.8406 34.5681L33.4511 30.1993C33.4566 30.1884 33.463 30.1763 33.4683 30.1651C33.5145 30.0649 33.5539 29.9646 33.5539 29.8396C33.5539 29.6172 33.4543 29.3913 33.2969 29.2399C33.1345 29.0835 32.903 29.0001 32.6802 29.0001H29.0823L29.0823 29ZM29.0823 29.7538H32.6801C32.7347 29.7538 32.7382 29.7616 32.7658 29.7881C32.7983 29.8193 32.7829 29.8135 32.7829 29.8395C32.7829 29.8174 32.784 29.8196 32.7658 29.8566V29.8909L32.7486 29.9081L30.8812 34.9793L30.6242 35.6474L31.3266 35.4761L35.6783 34.4139C35.7233 34.4027 35.7474 34.3967 35.7125 34.3967C35.7432 34.3968 35.7674 34.4044 35.7982 34.431C35.8009 34.4332 35.7954 34.4455 35.7982 34.4482C35.8182 34.4609 35.8388 34.4485 35.8154 34.4995L29.9046 47.1604C29.8977 47.1738 29.8917 47.1689 29.8875 47.1776C29.8668 47.2203 29.8692 47.229 29.7847 47.229C29.8053 47.229 29.7563 47.2317 29.7333 47.229C29.7092 47.2219 29.7063 47.2171 29.6991 47.2118C29.6918 47.2063 29.6887 47.1888 29.6819 47.1775C29.6675 47.154 29.6574 47.1726 29.6647 47.1433L31.8234 38.2858L31.9776 37.669L31.3609 37.8232L26.9235 38.9368H26.9064C26.942 38.9275 26.9162 38.9368 26.8721 38.9368C26.8183 38.9368 26.8145 38.9263 26.7864 38.9025C26.7579 38.8788 26.7629 38.8798 26.7693 38.8683V38.8511L28.9622 29.8394V29.8223C28.9672 29.8087 28.9752 29.804 28.9965 29.788C29.0188 29.7714 29.0371 29.7538 29.0822 29.7538L29.0823 29.7538Z" fill="white"/>
</svg>
