<svg width="55" height="43" viewBox="0 0 55 43" fill="none" xmlns="http://www.w3.org/2000/svg">
<path d="M23.545 39.7201L45.8861 39.719C46.0343 39.719 46.1893 39.719 46.3336 39.7352V39.7204C49.9827 39.7204 52.9511 36.7521 52.9511 33.103C52.9511 29.4538 49.9827 26.4854 46.3336 26.4854C45.8187 26.4854 45.2821 26.5515 44.7375 26.6863C44.5609 26.7294 44.3736 26.6984 44.2212 26.5959C44.0702 26.4949 43.9678 26.3357 43.9395 26.1551C43.2008 21.4464 39.2038 18.0278 34.4385 18.0278C29.1285 18.0278 24.8081 22.3482 24.8081 27.6595C24.8081 27.9196 24.827 28.1771 24.8472 28.4333C24.8633 28.6261 24.7932 28.8161 24.6543 28.9509C24.5155 29.0857 24.3241 29.1504 24.1313 29.1329C23.9386 29.1127 23.7445 29.0991 23.545 29.0991C20.6183 29.0991 18.2364 31.4825 18.2364 34.4091C18.2364 37.337 20.6183 39.7203 23.545 39.7203M23.5099 27.7997C23.5099 27.7538 23.5088 27.7066 23.5088 27.6595C23.5088 21.6323 28.4116 16.7282 34.4387 16.7282C39.6206 16.7282 44.0003 20.2897 45.0976 25.2869C45.5169 25.2182 45.9294 25.1859 46.3338 25.1859C50.7001 25.1859 54.2508 28.7366 54.2508 33.1029C54.2508 37.4678 50.7001 41.02 46.3338 41.02H46.3274C46.2303 41.0189 43.7323 41.0188 40.4256 41.0188L23.5455 41.02C19.9017 41.02 16.9374 38.0543 16.9374 34.4092C16.9374 30.7761 19.8815 27.8198 23.5104 27.7997" fill="white"/>
<path d="M10.6103 21.2385C10.6103 15.45 15.3203 10.7413 21.1075 10.7413C24.6474 10.7413 27.7115 12.2566 29.6621 15.2128C29.859 15.5135 29.7767 15.9165 29.4774 16.1133C29.1769 16.3128 28.7737 16.2292 28.5769 15.9299C26.8676 13.339 24.208 12.0409 21.1075 12.0409C16.0362 12.0409 11.9098 16.1659 11.9098 21.2385C11.9098 24.3782 13.487 27.2709 16.1278 28.9736C16.4284 29.169 16.5161 29.5708 16.3205 29.8714C16.1979 30.0655 15.9889 30.1693 15.7759 30.1693C15.6546 30.1693 15.532 30.137 15.4228 30.0656C12.4099 28.1217 10.6103 24.8217 10.6103 21.2386" fill="white"/>
<path d="M20.9692 7.52646C20.6094 7.52646 20.3195 7.23663 20.3195 6.87805V1.68672C20.3195 1.32814 20.6094 1.0383 20.9692 1.0383C21.3278 1.0383 21.619 1.32814 21.619 1.68672V6.87805C21.619 7.23663 21.3278 7.52646 20.9692 7.52646Z" fill="white"/>
<path d="M13.8612 9.54979C13.7547 9.61589 13.6374 9.64688 13.5202 9.64688C13.3031 9.64688 13.0901 9.53764 12.9661 9.33948L10.235 4.92603C10.0476 4.62138 10.1406 4.221 10.4453 4.03093C10.7513 3.84355 11.1503 3.93654 11.3404 4.24255L14.0715 8.65467C14.2616 8.96067 14.1671 9.35971 13.8612 9.54979Z" fill="white"/>
<path d="M8.48874 15.0156C8.38629 15.0156 8.28114 14.99 8.18274 14.9388L3.60479 12.4867C3.288 12.3182 3.16804 11.9245 3.33789 11.6078C3.5064 11.291 3.9 11.171 4.21814 11.3409L8.79609 13.7929C9.11288 13.9628 9.23286 14.3564 9.06166 14.6718C8.94573 14.8916 8.7206 15.0156 8.48874 15.0156Z" fill="white"/>
<path d="M1.61953 20.3433H1.62168L6.81433 20.3582C7.17426 20.3582 7.46407 20.6506 7.46273 21.0092C7.46165 21.3678 7.17156 21.6577 6.81298 21.6577H6.81189L1.61924 21.6429C1.25932 21.6418 0.969498 21.349 0.969498 20.9891C0.970576 20.6319 1.26067 20.3434 1.61924 20.3434" fill="white"/>
<path d="M3.66798 29.7401L8.22706 27.2475C8.5425 27.0764 8.93747 27.1909 9.10868 27.5078C9.28122 27.8218 9.16528 28.2168 8.84984 28.388L4.29077 30.8806C4.19242 30.9345 4.08587 30.9588 3.97938 30.9588C3.75156 30.9588 3.52779 30.8374 3.40917 30.6204C3.23796 30.3063 3.35394 29.9113 3.66798 29.7401Z" fill="white"/>
<path d="M38.2687 12.3091L33.7096 14.8003C33.6098 14.8556 33.5033 14.8799 33.3981 14.8799C33.169 14.8799 32.9452 14.7572 32.828 14.5415C32.6554 14.2274 32.7714 13.8325 33.0868 13.6613L37.6459 11.1687C37.9613 10.9961 38.3549 11.1122 38.5275 11.4276C38.6986 11.7417 38.5841 12.1366 38.2687 12.3091Z" fill="white"/>
<path d="M12.908 32.6916C13.0994 32.3869 13.4984 32.2939 13.8045 32.4867C14.1077 32.6754 14.1994 33.0771 14.0094 33.3805L11.2553 37.7859C11.1327 37.9827 10.9197 38.0918 10.7039 38.0918C10.5853 38.0918 10.4667 38.058 10.3602 37.9933C10.0555 37.8019 9.96251 37.4002 10.1539 37.0969L12.908 32.6916Z" fill="white"/>
<path d="M29.0286 9.35896C28.9058 9.55577 28.6929 9.66496 28.4772 9.66496C28.3599 9.66496 28.2413 9.63264 28.1335 9.56524C27.8288 9.37516 27.7371 8.97475 27.9272 8.66875L30.6826 4.26472C30.8727 3.96006 31.273 3.86707 31.5777 4.05849C31.881 4.24856 31.974 4.64895 31.7826 4.95361L29.0286 9.35896Z" fill="white"/>
</svg>
