<svg width="112" height="114" viewBox="0 0 112 114" fill="none" xmlns="http://www.w3.org/2000/svg">
<path d="M56.2456 82.3716C42.366 82.3716 31.0769 71.079 31.0769 57.1996C31.0769 43.3233 42.366 32.031 56.2456 32.031C70.125 32.031 81.4143 43.3233 81.4143 57.1996C81.4143 71.079 70.125 82.3716 56.2456 82.3716ZM56.2456 28.4749C40.4059 28.4749 27.5206 41.36 27.5206 57.1996C27.5206 73.0393 40.4059 85.9276 56.2456 85.9276C72.082 85.9276 84.9703 73.0393 84.9703 57.1996C84.9703 41.36 72.082 28.4749 56.2456 28.4749Z" fill="white"/>
<path d="M56.2453 20.0541C57.227 20.0541 58.0219 19.2592 58.0219 18.2743V4.07491C58.0219 3.09324 57.227 2.29845 56.2453 2.29845C55.2636 2.29845 54.4656 3.09324 54.4656 4.07491V18.2743C54.4656 19.2592 55.2636 20.0541 56.2453 20.0541Z" fill="white"/>
<path d="M56.2453 93.939C55.2636 93.939 54.4656 94.7337 54.4656 95.7187V109.918C54.4656 110.9 55.2636 111.694 56.2453 111.694C57.227 111.694 58.0219 110.9 58.0219 109.918V95.7187C58.0219 94.7337 57.227 93.939 56.2453 93.939Z" fill="white"/>
<path d="M75.6955 25.5879C75.9869 25.7686 76.3099 25.8542 76.6298 25.8542C77.2252 25.8542 77.8076 25.5565 78.1432 25.0118L85.6199 12.9373C86.1329 12.1013 85.8765 11.0088 85.0435 10.4895C84.2075 9.97332 83.1119 10.2298 82.5956 11.0658L75.1192 23.1435C74.6029 23.9763 74.8595 25.0719 75.6955 25.5879Z" fill="white"/>
<path d="M36.7969 88.405C35.9642 87.8887 34.8652 88.1453 34.3492 88.9813L26.8726 101.056C26.3565 101.892 26.6162 102.984 27.4489 103.504C27.7435 103.684 28.0632 103.77 28.3832 103.77C28.9785 103.77 29.5612 103.472 29.8969 102.927L37.3732 90.8496C37.8895 90.0169 37.6299 88.921 36.7969 88.405Z" fill="white"/>
<path d="M90.3953 40.5432C90.6803 40.5432 90.9653 40.4771 91.2346 40.3345L103.762 33.6242C104.63 33.1618 104.956 32.0852 104.49 31.2175C104.028 30.3562 102.951 30.0268 102.084 30.4925L89.5563 37.1992C88.6886 37.6615 88.3623 38.7415 88.828 39.6059C89.1477 40.2045 89.762 40.5432 90.3953 40.5432Z" fill="white"/>
<path d="M21.2326 73.7729L8.69894 80.4802C7.83444 80.9456 7.50827 82.0192 7.9706 82.8869C8.2936 83.4852 8.90477 83.8272 9.54127 83.8272C9.8231 83.8272 10.1081 83.7576 10.3773 83.6149L22.9078 76.9079C23.7754 76.4423 24.1016 75.3656 23.6393 74.498C23.1738 73.6366 22.1003 73.3106 21.2326 73.7729Z" fill="white"/>
<path d="M109.196 55.121H109.191L94.9788 55.1621C93.9971 55.1646 93.2024 55.9631 93.2055 56.9448C93.208 57.9234 94.0035 58.7181 94.9821 58.7181H94.9871L109.199 58.6771C110.181 58.6745 110.976 57.876 110.972 56.8944C110.97 55.9127 110.174 55.121 109.196 55.121Z" fill="white"/>
<path d="M19.2658 57.1543C19.2633 56.1726 18.4678 55.3809 17.4862 55.3809H17.4836L3.27162 55.4222C2.28679 55.4248 1.49513 56.2235 1.4983 57.2052C1.50083 58.1869 2.2963 58.9783 3.27479 58.9783H3.27986L17.4919 58.937C18.4735 58.9344 19.2652 58.1359 19.2652 57.1543" fill="white"/>
<path d="M103.59 80.8349L91.1129 74.0169C90.2516 73.5449 89.1716 73.8616 88.6999 74.7229C88.2313 75.5843 88.5479 76.6673 89.4093 77.1359L101.883 83.9506C102.155 84.1026 102.446 84.1723 102.735 84.1723C103.362 84.1723 103.976 83.8366 104.296 83.2476C104.768 82.3832 104.448 81.3035 103.59 80.8349Z" fill="white"/>
<path d="M23.0899 36.8367L10.6164 30.019C9.75504 29.547 8.67204 29.8637 8.20337 30.725C7.73154 31.5863 8.04808 32.6693 8.90954 33.138L21.383 39.9557C21.6554 40.1047 21.9467 40.1744 22.2349 40.1744C22.865 40.1744 23.4762 39.8389 23.7992 39.2499C24.2679 38.3886 23.9512 37.3053 23.0899 36.8367Z" fill="white"/>
<path d="M78.3038 88.9106C77.7845 88.081 76.6888 87.8243 75.8558 88.347C75.0231 88.8663 74.7698 89.965 75.2922 90.7947L82.8258 102.85C83.1615 103.389 83.7408 103.683 84.3331 103.683C84.6561 103.683 84.9791 103.598 85.2735 103.414C86.1065 102.895 86.3598 101.796 85.8405 100.963L78.3038 88.9106Z" fill="white"/>
<path d="M34.1932 25.0655C34.5288 25.6039 35.1115 25.9016 35.7005 25.9016C36.0235 25.9016 36.3498 25.8129 36.6411 25.6323C37.4738 25.1099 37.7272 24.0111 37.2078 23.1814L29.6712 11.1258C29.1518 10.2962 28.0562 10.0397 27.2202 10.5622C26.3874 11.0816 26.1372 12.1804 26.6565 13.0101L34.1932 25.0655Z" fill="white"/>
</svg>
