<svg width="44" height="45" viewBox="0 0 44 45" fill="none" xmlns="http://www.w3.org/2000/svg">
<path d="M22.2022 32.5151C16.7234 32.5151 12.2672 28.0575 12.2672 22.5788C12.2672 17.1013 16.7234 12.6438 22.2022 12.6438C27.6809 12.6438 32.1372 17.1013 32.1372 22.5788C32.1372 28.0575 27.6809 32.5151 22.2022 32.5151ZM22.2022 11.2401C15.9497 11.2401 10.8634 16.3263 10.8634 22.5788C10.8634 28.8313 15.9497 33.9188 22.2022 33.9188C28.4534 33.9188 33.5409 28.8313 33.5409 22.5788C33.5409 16.3263 28.4534 11.2401 22.2022 11.2401Z" fill="#357491"/>
<path d="M22.2021 7.91608C22.5896 7.91608 22.9034 7.60231 22.9034 7.21356V1.60852C22.9034 1.22102 22.5896 0.907288 22.2021 0.907288C21.8146 0.907288 21.4996 1.22102 21.4996 1.60852V7.21356C21.4996 7.60231 21.8146 7.91608 22.2021 7.91608Z" fill="#357491"/>
<path d="M22.2021 37.0812C21.8146 37.0812 21.4996 37.3949 21.4996 37.7837V43.3887C21.4996 43.7762 21.8146 44.0899 22.2021 44.0899C22.5896 44.0899 22.9034 43.7762 22.9034 43.3887V37.7837C22.9034 37.3949 22.5896 37.0812 22.2021 37.0812Z" fill="#357491"/>
<path d="M29.8798 10.1005C29.9948 10.1718 30.1223 10.2056 30.2486 10.2056C30.4836 10.2056 30.7135 10.0881 30.846 9.87307L33.7973 5.10683C33.9998 4.77683 33.8986 4.34559 33.5698 4.14059C33.2398 3.93684 32.8073 4.03807 32.6035 4.36807L29.6523 9.13558C29.4485 9.46433 29.5498 9.8968 29.8798 10.1005" fill="#357491"/>
<path d="M14.5251 34.8967C14.1964 34.6929 13.7626 34.7942 13.5589 35.1242L10.6076 39.8905C10.4039 40.2205 10.5064 40.6517 10.8351 40.8567C10.9514 40.9279 11.0776 40.9617 11.2039 40.9617C11.4389 40.9617 11.6689 40.8442 11.8014 40.6292L14.7526 35.8617C14.9564 35.533 14.8539 35.1004 14.5251 34.8967" fill="#357491"/>
<path d="M35.6824 16.0039C35.7949 16.0039 35.9074 15.9778 36.0137 15.9215L40.9587 13.2727C41.3012 13.0902 41.4299 12.6652 41.2461 12.3227C41.0636 11.9827 40.6387 11.8527 40.2962 12.0365L35.3512 14.6839C35.0087 14.8664 34.8799 15.2927 35.0637 15.6339C35.1899 15.8702 35.4324 16.0039 35.6824 16.0039" fill="#357491"/>
<path d="M8.38129 29.1209L3.43379 31.7685C3.09254 31.9522 2.96379 32.376 3.14629 32.7185C3.27379 32.9547 3.51504 33.0897 3.76629 33.0897C3.87754 33.0897 3.99004 33.0622 4.09629 33.0059L9.04254 30.3584C9.38504 30.1746 9.51379 29.7496 9.33129 29.4071C9.14754 29.0671 8.72379 28.9384 8.38129 29.1209" fill="#357491"/>
<path d="M43.1036 21.7583H43.1016L37.4916 21.7745C37.1041 21.7755 36.7904 22.0907 36.7916 22.4782C36.7926 22.8645 37.1066 23.1782 37.4929 23.1782H37.4949L43.1049 23.162C43.4924 23.161 43.8061 22.8458 43.8049 22.4583C43.8039 22.0708 43.4899 21.7583 43.1036 21.7583Z" fill="#357491"/>
<path d="M7.60493 22.5609C7.60393 22.1734 7.28993 21.8609 6.90243 21.8609H6.90143L1.29143 21.8772C0.902681 21.8782 0.590184 22.1935 0.591434 22.581C0.592434 22.9685 0.906433 23.2809 1.29268 23.2809H1.29468L6.90468 23.2646C7.29218 23.2636 7.60468 22.9484 7.60468 22.5609" fill="#357491"/>
<path d="M40.8906 31.9085L35.9656 29.2172C35.6256 29.0309 35.1993 29.1559 35.0131 29.4959C34.8281 29.8359 34.9531 30.2634 35.2931 30.4484L40.2168 33.1384C40.3243 33.1984 40.4393 33.2259 40.5531 33.2259C40.8006 33.2259 41.0431 33.0934 41.1693 32.8609C41.3556 32.5197 41.2293 32.0935 40.8906 31.9085" fill="#357491"/>
<path d="M9.11442 14.5408L4.19067 11.8496C3.85067 11.6633 3.42317 11.7883 3.23817 12.1283C3.05192 12.4683 3.17687 12.8958 3.51692 13.0808L8.44067 15.772C8.54817 15.8308 8.66317 15.8583 8.77692 15.8583C9.02567 15.8583 9.26692 15.7259 9.39442 15.4934C9.57942 15.1534 9.45442 14.7258 9.11442 14.5408" fill="#357491"/>
<path d="M30.9094 35.0963C30.7044 34.7688 30.2719 34.6675 29.9431 34.8738C29.6144 35.0788 29.5144 35.5125 29.7206 35.84L32.6944 40.5988C32.8269 40.8113 33.0556 40.9275 33.2894 40.9275C33.4169 40.9275 33.5444 40.8938 33.6606 40.8213C33.9894 40.6163 34.0894 40.1825 33.8844 39.8538L30.9094 35.0963V35.0963Z" fill="#357491"/>
<path d="M13.4973 9.89428C13.6298 10.1068 13.8598 10.2243 14.0923 10.2243C14.2198 10.2243 14.3486 10.1893 14.4636 10.118C14.7923 9.91179 14.8923 9.47807 14.6873 9.15057L11.7123 4.39178C11.5073 4.06428 11.0748 3.96306 10.7448 4.16931C10.4161 4.37431 10.3173 4.80805 10.5223 5.13555L13.4973 9.89428Z" fill="#357491"/>
</svg>
